HIERARCHY
ROOT Hips
{
  OFFSET 3.13124 94.3669 -3.18751
  CHANNELS  6 Xposition Yposition Zposition Zrotation Xrotation Yrotation
  JOINT LeftUpLeg
  {
    OFFSET 8.64259 1.95398 -2.38835
    CHANNELS 3 Zrotation Xrotation Yrotation
    JOINT LeftLeg
    {
      OFFSET 43.7702 0 0
      CHANNELS 3 Zrotation Xrotation Yrotation
      JOINT LeftFoot
      {
        OFFSET 40.6238 0 0
        CHANNELS 3 Zrotation Xrotation Yrotation
        JOINT LeftToeBase
        {
          OFFSET 12.7242 0 0
          CHANNELS 3 Zrotation Xrotation Yrotation
          End Site
          {
            OFFSET 0 0 0
          }
        }
      }
    }
  }
  JOINT RightUpLeg
  {
    OFFSET -8.2249 1.95398 -2.59336
    CHANNELS 3 Zrotation Xrotation Yrotation
    JOINT RightLeg
    {
      OFFSET 43.5653 0 0
      CHANNELS 3 Zrotation Xrotation Yrotation
      JOINT RightFoot
      {
        OFFSET 40.6238 0 0
        CHANNELS 3 Zrotation Xrotation Yrotation
        JOINT RightToeBase
        {
          OFFSET 12.7242 0 0
          CHANNELS 3 Zrotation Xrotation Yrotation
          End Site
          {
            OFFSET 0 0 0
          }
        }
      }
    }
  }
  JOINT Spine
  {
    OFFSET 0.165834 0.87714 6.61349
    CHANNELS 3 Zrotation Xrotation Yrotation
    JOINT Spine1
    {
      OFFSET 7.38962 1.71661e-005 0
      CHANNELS 3 Zrotation Xrotation Yrotation
      JOINT Spine2
      {
        OFFSET 11.9445 1.14441e-005 0
        CHANNELS 3 Zrotation Xrotation Yrotation
        JOINT Spine3
        {
          OFFSET 14.7254 4.19617e-005 0
          CHANNELS 3 Zrotation Xrotation Yrotation
          JOINT Spine4
          {
            OFFSET 10.9679 0 0
            CHANNELS 3 Zrotation Xrotation Yrotation
            JOINT RightShoulder
            {
              OFFSET 2.46616 -1.6653 3.69651
              CHANNELS 3 Zrotation Xrotation Yrotation
              JOINT RightArm
              {
                OFFSET 13.0012 0 0
                CHANNELS 3 Zrotation Xrotation Yrotation
                JOINT RightForeArm
                {
                  OFFSET 28.7848 1.52588e-005 0
                  CHANNELS 3 Zrotation Xrotation Yrotation
                  JOINT RightHand
                  {
                    OFFSET 26.5688 1.52588e-005 0
                    CHANNELS 3 Zrotation Xrotation Yrotation
                    End Site
                    {
                      OFFSET 0 0 0
                    }
                  }
                }
              }
            }
            JOINT LeftShoulder
            {
              OFFSET 2.38034 -1.29275 -3.75231
              CHANNELS 3 Zrotation Xrotation Yrotation
              JOINT LeftArm
              {
                OFFSET 16.3182 6.10352e-005 0
                CHANNELS 3 Zrotation Xrotation Yrotation
                JOINT LeftForeArm
                {
                  OFFSET 27.0901 0 0
                  CHANNELS 3 Zrotation Xrotation Yrotation
                  JOINT LeftHand
                  {
                    OFFSET 24.5451 1.52588e-005 0
                    CHANNELS 3 Zrotation Xrotation Yrotation
                    End Site
                    {
                      OFFSET 0 0 0
                    }
                  }
                }
              }
            }
            JOINT Neck
            {
              OFFSET 5.0226 -0.0266342 0
              CHANNELS 3 Zrotation Xrotation Yrotation
              JOINT Head
              {
                OFFSET 6.69363 2.86102e-005 0
                CHANNELS 3 Zrotation Xrotation Yrotation
                End Site
                {
                  OFFSET 0 0 0
                }
              }
            }
          }
        }
      }
    }
  }
}
MOTION
Frames:	6
Frame Time:	0.0333333
14.5335 91.5546 22.6213 -112.184 -79.5241 -119.967 -177.844 20.8858 82.2452 -39.017 -16.9293 -1.05169 62.489 -1.70686 -1.16237 28.7808 5.38796e-006 6.01283e-006 -173.904 27.1631 75.0051 -79.2417 16.0077 -0.15255 38.9958 9.35863 9.16565 28.7808 1.36766e-005 2.09615e-005 0.0374054 6.93959 -86.9499 13.0008 0.220565 -0.489106 1.3298 0.19884 -0.498346 -21.205 0.357359 -0.400209 -1.19232 0.357369 -0.40021 97.2858 -49.4834 -89.6291 35.6024 -0.929171 14.1624 31.4592 -4.87363 -99.0881 65.9787 27.0654 35.174 -77.3513 -55.9107 97.8023 -19.5712 -18.5268 -26.3225 -41.3844 2.69092 -96.3906 -42.0101 -7.83938 17.0107 -5.3586 18.3842 4.0075 -22.2198 14.0844 23.2368 
13.057 91.8446 23.8729 -111.578 -77.8761 -118.576 -177.156 19.3405 84.1739 -39.6243 -16.5641 -1.20424 63.2478 -2.42893 -1.54207 28.7808 5.38796e-006 6.01283e-006 -173.401 26.1167 70.3833 -71.8495 19.4887 0.237792 46.4538 7.95246 6.79792 28.7808 1.36766e-005 2.09615e-005 -0.359296 7.04893 -87.2704 12.7403 -0.539024 -0.581016 1.06931 -0.564077 -0.556738 -21.4652 -0.339497 -0.71615 -1.45258 -0.339499 -0.716149 98.6753 -46.0931 -87.7064 37.3186 -1.06283 16.3456 52.687 -2.25371 -93.8952 71.484 20.6753 23.0941 -78.6072 -60.0128 96.0845 -21.3574 -10.3416 -27.4093 -59.7352 1.53916 -93.8136 -35.2558 -8.71165 24.2244 -6.42892 21.844 6.83606 -22.4333 17.0314 25.3939 
11.4571 92.2317 25.0713 -109.744 -76.1736 -116.002 -176.622 17.6097 85.9751 -39.1732 -17.0889 -1.31214 63.7854 -2.99547 -1.82849 28.7808 5.38796e-006 6.01283e-006 -174.353 24.9395 66.0812 -61.1939 17.7966 0.350386 49.8084 5.12814 4.24701 28.7808 1.36766e-005 2.09615e-005 -0.729276 7.14296 -87.6185 12.5231 -1.19627 -0.557267 0.852572 -1.21963 -0.504071 -21.6848 -0.973484 -0.891043 -1.67214 -0.973489 -0.891039 99.6387 -43.2987 -86.2946 39.2527 -2.57869 17.3742 70.5308 0.148562 -92.4022 75.183 14.9701 14.1119 -79.6899 -63.3895 94.7185 -22.0325 -6.85256 -31.9353 -86.4061 -1.487 -92.3694 -18.5927 -9.60652 56.5695 -7.2588 24.684 9.33747 -22.3894 19.3911 27.9202 
9.79368 92.7493 26.2086 -108.031 -74.7594 -114.258 -176.486 15.7183 86.8735 -37.7459 -17.8849 -1.00968 63.2715 -3.7098 -2.26787 28.7808 5.38796e-006 6.01283e-006 -176.899 23.6446 62.2208 -48.3766 9.44135 0.0710922 48.8065 2.4928 2.35933 28.7808 1.36766e-005 2.09615e-005 -1.02835 7.2014 -87.9392 12.3929 -1.71443 -0.398347 0.723032 -1.7303 -0.322484 -21.8191 -1.51544 -0.895285 -1.80647 -1.51544 -0.895286 100.76 -40.6346 -84.4906 37.7872 -0.463519 20.0663 67.4769 -2.59861 -93.2865 69.72 15.4504 16.7374 -80.3146 -66.6792 94.0232 -23.6121 -0.141288 -39.3179 -118.106 -10.218 -96.8887 10.7615 8.10839 60.2721 -8.4415 26.7946 13.3636 -21.6451 21.3509 29.3399 
7.39187 93.2556 26.9859 -102.936 -73.0676 -109.474 -176.079 14.8061 88.3021 -36.3665 -18.5747 -1.09973 61.678 -5.18513 -3.26403 28.7808 5.38796e-006 6.01283e-006 -179.961 24.3747 60.1487 -36.2938 -5.69368 -0.5564 41.4894 0.0405373 0.754012 28.7808 1.36766e-005 2.09615e-005 -1.23493 7.12094 -88.1123 12.5579 -1.96237 -0.0196115 0.888476 -1.96134 0.0667994 -21.6578 -1.86572 -0.60869 -1.6451 -1.86572 -0.608691 101.668 -39.3947 -82.9133 36.2903 2.17022 22.7345 66.4208 -3.56075 -93.7232 65.5555 14.3542 16.8213 -81.0128 -68.3469 93.2158 -26.8034 8.20785 -38.4688 -130.304 -12.7736 -102.203 19.3869 9.2712 41.6316 -9.02852 28.7232 15.4598 -21.9374 22.7904 31.827 
4.38173 93.86 27.5138 -99.0361 -71.7881 -105.718 -175.374 13.9251 90.2648 -34.5606 -18.0288 -0.774397 58.9187 -7.19097 -4.78602 28.7808 5.38796e-006 6.01283e-006 176.417 23.7742 60.6118 -25.6181 -19.7875 -1.09467 38.3505 0.688067 1.43743 28.7808 1.36766e-005 2.09615e-005 -1.37059 7.02733 -88.329 12.7583 -2.2022 0.446979 1.0891 -2.18037 0.543502 -21.461 -2.23467 -0.235877 -1.44835 -2.23466 -0.235873 102.339 -38.7243 -81.7127 35.5345 3.72007 24.8711 61.5103 -3.6306 -94.0844 60.4775 11.9019 14.9737 -81.3737 -69.0763 92.8034 -31.5346 14.9876 -37.6098 -134.75 -18.7649 -109.409 15.3846 6.53786 36.4143 -9.22753 30.4075 17.5531 -21.7599 24.2891 32.9808 
